<svg width="449" height="361" viewBox="0 0 449 361" fill="none" xmlns="http://www.w3.org/2000/svg">
<g filter="url(#filter0_d_298_91)">
<mask id="path-1-inside-1_298_91" fill="white">
<path fill-rule="evenodd" clip-rule="evenodd" d="M203.633 40.3888C65.0831 57.3795 9.905 131.162 19.8926 212.606C29.8803 294.049 79.069 355.033 239.801 335.322C379.078 318.242 433.529 244.549 423.541 163.105C418.858 124.914 401.876 91.6731 370.311 68.9585C369.923 68.679 369.775 68.1745 369.976 67.74C376.485 53.6565 392.276 27.1143 410.16 3.00728C410.83 2.10424 409.753 0.963482 408.829 1.60334C394.245 11.6957 379.706 24.1055 367.277 34.7148C358.132 42.5197 350.13 49.3502 344.091 53.5668C343.808 53.7646 343.446 53.7991 343.129 53.662C308.789 38.8075 262.803 33.1326 203.633 40.3888Z"/>
</mask>
<path fill-rule="evenodd" clip-rule="evenodd" d="M203.633 40.3888C65.0831 57.3795 9.905 131.162 19.8926 212.606C29.8803 294.049 79.069 355.033 239.801 335.322C379.078 318.242 433.529 244.549 423.541 163.105C418.858 124.914 401.876 91.6731 370.311 68.9585C369.923 68.679 369.775 68.1745 369.976 67.74C376.485 53.6565 392.276 27.1143 410.16 3.00728C410.83 2.10424 409.753 0.963482 408.829 1.60334C394.245 11.6957 379.706 24.1055 367.277 34.7148C358.132 42.5197 350.13 49.3502 344.091 53.5668C343.808 53.7646 343.446 53.7991 343.129 53.662C308.789 38.8075 262.803 33.1326 203.633 40.3888Z" fill="#FFF59F"/>
<path d="M239.801 335.322L240.166 338.3L239.801 335.322ZM367.277 34.7148L365.329 32.433L365.329 32.433L367.277 34.7148ZM344.091 53.5668L342.374 51.1071L344.091 53.5668ZM343.129 53.662L344.32 50.9085L343.129 53.662ZM410.16 3.00728L412.569 4.79469L410.16 3.00728ZM408.829 1.60334L410.536 4.07022L408.829 1.60334ZM369.976 67.74L372.699 68.9986L369.976 67.74ZM22.8703 212.241C17.9782 172.348 29.0301 134.466 58.2133 104.417C87.4553 74.3087 135.161 51.8081 203.998 43.3665L203.268 37.4111C133.555 45.9601 84.3966 68.8461 53.9091 100.237C23.3627 131.689 11.8195 171.42 16.9149 212.971L22.8703 212.241ZM239.436 332.344C159.39 342.161 107.777 331.788 75.0091 309.419C42.3449 287.121 27.8048 252.478 22.8703 212.241L16.9149 212.971C21.9681 254.177 37.0162 290.748 71.6263 314.375C106.133 337.931 159.481 348.195 240.166 338.3L239.436 332.344ZM420.564 163.47C425.457 203.374 414.579 241.232 385.491 271.263C356.342 301.356 308.64 323.858 239.436 332.344L240.166 338.3C310.239 329.707 359.401 306.822 389.8 275.437C420.26 243.991 431.613 204.28 426.519 162.74L420.564 163.47ZM368.559 71.3936C399.339 93.5436 415.965 125.972 420.564 163.47L426.519 162.74C421.751 123.856 404.413 89.8026 372.063 66.5235L368.559 71.3936ZM372.699 68.9986C379.099 55.1509 394.771 28.7869 412.569 4.79469L407.75 1.21987C389.781 25.4418 373.871 52.1621 367.253 66.4814L372.699 68.9986ZM407.121 -0.863544C392.391 9.33025 377.737 21.8421 365.329 32.433L369.224 36.9966C381.675 26.3689 396.099 14.0612 410.536 4.07022L407.121 -0.863544ZM365.329 32.433C356.135 40.2805 348.264 46.9943 342.374 51.1071L345.809 56.0265C351.996 51.7061 360.13 44.7588 369.224 36.9966L365.329 32.433ZM203.998 43.3665C262.821 36.1528 308.233 41.8356 341.938 56.4154L344.32 50.9085C309.346 35.7795 262.784 30.1124 203.268 37.4111L203.998 43.3665ZM342.374 51.1071C342.955 50.7015 343.695 50.6381 344.32 50.9085L341.938 56.4154C343.197 56.9602 344.661 56.8277 345.809 56.0265L342.374 51.1071ZM412.569 4.79469C413.877 3.03246 413.446 0.906721 412.271 -0.335199C411.086 -1.58757 408.955 -2.13249 407.121 -0.863544L410.536 4.07022C410.165 4.32651 409.651 4.47371 409.102 4.39641C408.594 4.32473 408.189 4.08016 407.913 3.78864C407.34 3.1829 407.113 2.07905 407.75 1.21987L412.569 4.79469ZM372.063 66.5235C372.773 67.0341 373.136 68.0528 372.699 68.9986L367.253 66.4814C366.414 68.2961 367.072 70.3239 368.559 71.3936L372.063 66.5235Z" fill="#03040A" mask="url(#path-1-inside-1_298_91)"/>
</g>
<path d="M86.7297 167.31L83.2994 167.731L80.6897 146.45L91.7429 145.095C96.5707 144.503 99.8368 146.423 100.324 150.394C100.756 153.919 98.7023 156.363 94.7275 157.076L94.7548 157.299C96.4609 157.541 97.3401 158.4 98.266 159.641L102.579 165.366L98.6405 165.849L94.5213 160.39C93.362 158.824 92.2917 158.246 89.6237 158.573L85.717 159.052L86.7297 167.31ZM84.4978 149.11L85.3937 156.416L92.9848 155.485C95.8434 155.134 97.152 153.974 96.8248 151.306C96.5054 148.702 94.9475 147.829 92.089 148.179L84.4978 149.11ZM121.664 163.026L104.64 165.114L102.03 143.833L119.054 141.745L119.432 144.826L105.838 146.493L106.57 152.465L119.688 150.856L120.062 153.905L106.944 155.514L107.692 161.612L121.286 159.945L121.664 163.026ZM136.532 161.203L131.673 161.799L119.979 141.632L124.045 141.133L133.599 158.048L133.853 158.017L138.973 139.303L143.007 138.808L136.532 161.203ZM157.56 158.946C150.89 159.764 145.946 155.986 145.132 149.348C144.317 142.71 148.203 137.848 154.873 137.031C161.606 136.205 166.519 139.987 167.333 146.625C168.147 153.263 164.294 158.121 157.56 158.946ZM157.155 155.643C162.205 155.024 164.363 152.373 163.712 147.069C163.062 141.765 160.324 139.683 155.274 140.302C150.224 140.921 148.102 143.599 148.752 148.904C149.403 154.208 152.105 156.262 157.155 155.643ZM187.72 154.925L171.172 156.955L168.563 135.674L171.993 135.253L174.225 153.453L187.343 151.844L187.72 154.925ZM199.823 153.764C193.471 154.543 189.437 151.62 188.728 145.839L187.201 133.388L190.6 132.972L192.099 145.2C192.625 149.488 194.749 151.033 199.418 150.46C204.087 149.888 205.775 147.875 205.249 143.587L203.749 131.359L207.18 130.938L208.706 143.389C209.415 149.17 206.207 152.981 199.823 153.764ZM223.406 150.549L220.007 150.966L217.775 132.766L209.39 133.795L209.012 130.714L229.15 128.244L229.527 131.325L221.174 132.349L223.406 150.549ZM237.196 148.858L233.766 149.279L231.156 127.998L234.587 127.577L237.196 148.858ZM250.861 147.505C244.191 148.323 239.247 144.544 238.433 137.906C237.619 131.268 241.504 126.407 248.174 125.589C254.907 124.763 259.82 128.545 260.634 135.183C261.448 141.822 257.595 146.679 250.861 147.505ZM250.456 144.201C255.506 143.582 257.664 140.932 257.013 135.627C256.363 130.323 253.625 128.241 248.575 128.86C243.525 129.48 241.403 132.158 242.053 137.462C242.704 142.766 245.406 144.821 250.456 144.201ZM267.904 145.092L264.473 145.513L261.864 124.232L265.548 123.781L276.604 135.063L279.854 138.694L280.108 138.663L279.478 134.839L277.935 122.261L281.366 121.841L283.975 143.121L280.291 143.573L269.176 132.331L266.048 128.91L265.794 128.941L266.373 132.61L267.904 145.092ZM290.578 142.312L287.147 142.732L284.538 121.452L287.968 121.031L290.578 142.312ZM312.494 139.624L293.214 141.988L292.836 138.907L304.893 122.341L304.862 122.087L291.395 123.738L291.017 120.657L309.535 118.386L309.912 121.467L297.601 138.065L297.632 138.319L312.116 136.543L312.494 139.624ZM318.555 138.881L315.125 139.301L312.515 118.021L315.946 117.6L318.555 138.881ZM325.162 138.07L321.732 138.491L319.122 117.211L322.807 116.759L333.862 128.041L337.112 131.672L337.366 131.641L336.736 127.817L335.194 115.24L338.624 114.819L341.234 136.1L337.549 136.551L326.434 125.309L323.307 121.888L323.053 121.919L323.631 125.588L325.162 138.07ZM354.227 134.829C347.97 135.596 343.28 131.786 342.466 125.148C341.652 118.51 345.6 113.641 352.397 112.808C358.432 112.067 362.999 114.602 363.603 119.526L363.634 119.78L359.854 120.243L359.823 119.989C359.449 116.94 357.118 115.549 352.703 116.091C347.59 116.718 345.436 119.4 346.087 124.704C346.737 130.008 349.439 132.063 354.426 131.451C359.508 130.828 361.337 129.185 360.897 125.596L360.862 125.31L352.985 126.276L352.666 123.672L363.941 122.289L365.273 133.152L362.161 133.533L361.596 128.928L361.374 128.955C360.866 132.177 358.388 134.318 354.227 134.829ZM114.437 212.272L111.038 212.689L108.806 194.489L100.421 195.517L100.043 192.436L120.18 189.967L120.558 193.048L112.205 194.072L114.437 212.272ZM128.227 210.581L124.797 211.001L122.187 189.721L125.617 189.3L128.227 210.581ZM141.797 209.239C135.19 210.049 130.277 206.267 129.463 199.629C128.649 192.991 132.503 188.133 139.109 187.323C145.112 186.587 149.694 189.249 150.318 194.331L150.372 194.776L146.592 195.239L146.538 194.795C146.141 191.555 143.862 190.061 139.542 190.591C134.556 191.202 132.434 193.88 133.084 199.185C133.735 204.489 136.437 206.543 141.424 205.932C145.743 205.402 147.597 203.434 147.196 200.162L147.146 199.749L150.925 199.286L150.976 199.699C151.603 204.812 147.832 208.499 141.797 209.239ZM157.911 206.941L154.481 207.361L151.871 186.081L155.301 185.66L156.415 194.744L162.863 193.953L167.974 184.106L172.04 183.607L165.897 195.032L174.618 204.892L170.552 205.39L163.332 197.249L156.82 198.047L157.911 206.941ZM193.497 202.577L176.472 204.664L173.862 183.384L190.887 181.296L191.265 184.377L177.671 186.044L178.403 192.015L191.521 190.407L191.894 193.456L178.777 195.064L179.525 201.163L193.119 199.496L193.497 202.577ZM206.745 200.952L203.347 201.369L201.115 183.169L192.73 184.197L192.352 181.116L212.489 178.647L212.867 181.728L204.513 182.752L206.745 200.952ZM220.536 199.261L217.105 199.681L214.496 178.401L217.926 177.98L220.536 199.261ZM227.142 198.45L223.712 198.871L221.102 177.591L224.787 177.139L235.842 188.421L239.092 192.052L239.346 192.021L238.716 188.197L237.174 175.62L240.604 175.199L243.214 196.48L239.529 196.931L228.414 185.689L225.287 182.268L225.033 182.299L225.612 185.968L227.142 198.45ZM256.208 195.209C249.95 195.976 245.26 192.166 244.446 185.528C243.632 178.89 247.58 174.021 254.378 173.188C260.412 172.447 264.979 174.983 265.583 179.906L265.614 180.16L261.834 180.623L261.803 180.369C261.429 177.32 259.098 175.929 254.683 176.471C249.57 177.098 247.416 179.78 248.067 185.084C248.717 190.388 251.419 192.443 256.406 191.831C261.488 191.208 263.317 189.565 262.877 185.976L262.842 185.69L254.965 186.656L254.646 184.052L265.921 182.669L267.254 193.532L264.141 193.913L263.576 189.308L263.354 189.335C262.846 192.557 260.368 194.698 256.208 195.209ZM285.102 191.343L280.052 191.962L271.82 171.371L275.632 170.903L280.745 183.946L282.251 188.339L282.505 188.308L283.096 183.658L285.732 169.665L290.719 169.053L296.944 181.96L298.704 186.322L298.958 186.291L299.294 181.671L300.819 167.815L304.567 167.355L301.841 189.29L296.791 189.909L290.984 178.048L288.757 172.776L288.471 172.811L287.617 178.461L285.102 191.343ZM312.627 187.967L309.197 188.388L306.587 167.107L310.017 166.687L312.627 187.967ZM326.38 186.281L322.982 186.697L320.75 168.498L312.364 169.526L311.987 166.445L332.124 163.976L332.502 167.057L324.148 168.081L326.38 186.281ZM340.171 184.59L336.74 185.01L334.131 163.73L337.561 163.309L338.667 172.329L351.181 170.795L350.075 161.774L353.474 161.358L356.083 182.638L352.685 183.055L351.559 173.876L339.045 175.41L340.171 184.59ZM198.357 250.34L193.307 250.959L185.075 230.368L188.887 229.901L194 242.943L195.506 247.337L195.76 247.306L196.351 242.655L198.987 228.662L203.974 228.051L210.199 240.957L211.959 245.319L212.213 245.288L212.549 240.669L214.074 226.812L217.822 226.352L215.096 248.287L210.045 248.907L204.239 237.045L202.012 231.773L201.726 231.808L200.872 237.458L198.357 250.34ZM239.476 245.298L222.452 247.385L219.842 226.105L236.866 224.017L237.244 227.098L223.65 228.765L224.382 234.736L237.5 233.128L237.874 236.177L224.756 237.785L225.504 243.884L239.098 242.217L239.476 245.298ZM254.344 243.474L241.989 244.989L239.379 223.709L251.29 222.248C255.356 221.75 258.031 223.324 258.444 226.69C258.752 229.2 257.584 231.245 254.391 232.023L254.418 232.246C258.09 232.215 260.11 233.966 260.453 236.761C260.901 240.413 258.728 242.937 254.344 243.474ZM243.156 226.373L243.872 232.217L251.908 231.232C254.29 230.94 255.384 229.87 255.139 227.869C254.893 225.868 253.669 225.084 251.287 225.376L243.156 226.373ZM244.219 235.044L245.01 241.492L253.585 240.44C256.126 240.128 257.248 239.024 256.964 236.705C256.691 234.482 255.304 233.685 252.795 233.992L244.219 235.044ZM272.391 241.584C265.721 242.402 262.436 239.806 261.907 235.486L261.844 234.978L265.465 234.534L265.52 234.979C265.862 237.774 267.166 238.936 271.866 238.359C276.281 237.818 277.745 236.607 277.437 234.098C277.172 231.938 275.59 231.132 272.922 231.46L266.983 232.188L266.632 229.329L272.095 228.659C274.668 228.344 275.885 227.227 275.652 225.322C275.398 223.257 274.007 222.428 269.878 222.935C265.527 223.468 264.289 224.942 264.632 227.737L264.659 227.959L261.038 228.403L261.003 228.118C260.493 223.957 263.16 220.47 269.767 219.66C275.198 218.994 278.524 220.617 278.968 224.238C279.264 226.652 278.045 228.542 275.368 229.322L275.399 229.576C278.547 229.738 280.599 231.227 280.961 234.181C281.456 238.215 278.203 240.871 272.391 241.584ZM286.975 232.38L283.64 232.789C283.262 229.708 281.951 223.227 281.651 220.782L281.379 218.558L285.73 218.025L286.003 220.248C286.303 222.694 286.601 229.331 286.975 232.38ZM288.086 239.336L284.211 239.812L283.634 235.111L287.509 234.636L288.086 239.336Z" fill="#03040A"/>
<defs>
<filter id="filter0_d_298_91" x="18.7526" y="1.41687" width="410.94" height="342.634" filterUnits="userSpaceOnUse" color-interpolation-filters="sRGB">
<feFlood flood-opacity="0" result="BackgroundImageFix"/>
<feColorMatrix in="SourceAlpha" type="matrix" values="0 0 0 0 0 0 0 0 0 0 0 0 0 0 0 0 0 0 127 0" result="hardAlpha"/>
<feOffset dx="5" dy="5"/>
<feComposite in2="hardAlpha" operator="out"/>
<feColorMatrix type="matrix" values="0 0 0 0 0 0 0 0 0 0 0 0 0 0 0 0 0 0 1 0"/>
<feBlend mode="normal" in2="BackgroundImageFix" result="effect1_dropShadow_298_91"/>
<feBlend mode="normal" in="SourceGraphic" in2="effect1_dropShadow_298_91" result="shape"/>
</filter>
</defs>
</svg>
