<svg width="449" height="361" viewBox="0 0 449 361" fill="none" xmlns="http://www.w3.org/2000/svg">
<g filter="url(#filter0_d_298_96)">
<mask id="path-1-inside-1_298_96" fill="white">
<path fill-rule="evenodd" clip-rule="evenodd" d="M245.266 40.3888C383.815 57.3795 438.993 131.162 429.006 212.606C419.018 294.049 369.829 355.033 209.097 335.322C69.8203 318.242 15.3695 244.549 25.3572 163.105C30.0406 124.914 47.0224 91.6731 78.5874 68.9585C78.9759 68.679 79.1235 68.1745 78.9227 67.74C72.4137 53.6565 56.6225 27.1143 38.7387 3.00728C38.0687 2.10424 39.1453 0.963482 40.0699 1.60334C54.6534 11.6957 69.1924 24.1055 81.622 34.7148C90.766 42.5197 98.7685 49.3502 104.807 53.5668C105.09 53.7646 105.452 53.7991 105.769 53.662C140.109 38.8075 186.096 33.1326 245.266 40.3888Z"/>
</mask>
<path fill-rule="evenodd" clip-rule="evenodd" d="M245.266 40.3888C383.815 57.3795 438.993 131.162 429.006 212.606C419.018 294.049 369.829 355.033 209.097 335.322C69.8203 318.242 15.3695 244.549 25.3572 163.105C30.0406 124.914 47.0224 91.6731 78.5874 68.9585C78.9759 68.679 79.1235 68.1745 78.9227 67.74C72.4137 53.6565 56.6225 27.1143 38.7387 3.00728C38.0687 2.10424 39.1453 0.963482 40.0699 1.60334C54.6534 11.6957 69.1924 24.1055 81.622 34.7148C90.766 42.5197 98.7685 49.3502 104.807 53.5668C105.09 53.7646 105.452 53.7991 105.769 53.662C140.109 38.8075 186.096 33.1326 245.266 40.3888Z" fill="#FFF59F"/>
<path d="M209.097 335.322L208.732 338.3L209.097 335.322ZM81.622 34.7148L83.5696 32.433L83.5696 32.433L81.622 34.7148ZM104.807 53.5668L106.525 51.1071L104.807 53.5668ZM105.769 53.662L104.578 50.9085L105.769 53.662ZM38.7387 3.00728L36.3293 4.79469L38.7387 3.00728ZM40.0699 1.60334L38.3627 4.07022L40.0699 1.60334ZM78.5874 68.9585L80.3397 71.3936L78.5874 68.9585ZM78.9227 67.74L76.1995 68.9986L78.9227 67.74ZM426.028 212.24C430.92 172.348 419.868 134.466 390.685 104.417C361.443 74.3087 313.738 51.8081 244.901 43.3665L245.631 37.4111C315.343 45.9601 364.502 68.8461 394.989 100.237C425.536 131.689 437.079 171.42 431.984 212.971L426.028 212.24ZM209.462 332.344C289.509 342.161 341.122 331.788 373.889 309.419C406.554 287.121 421.094 252.478 426.028 212.24L431.984 212.971C426.93 254.177 411.882 290.748 377.272 314.375C342.766 337.931 289.418 348.195 208.732 338.3L209.462 332.344ZM28.3349 163.47C23.4414 203.374 34.3196 241.232 63.4079 271.263C92.5563 301.356 140.258 323.858 209.462 332.344L208.732 338.3C138.66 329.707 89.4975 306.822 59.0981 275.437C28.6387 243.991 17.2853 204.28 22.3795 162.74L28.3349 163.47ZM80.3397 71.3936C49.5593 93.5436 32.9334 125.972 28.3349 163.47L22.3795 162.74C27.1479 123.856 44.4856 89.8026 76.8351 66.5235L80.3397 71.3936ZM76.1995 68.9986C69.7995 55.1509 54.1279 28.7869 36.3293 4.79469L41.148 1.21987C59.1172 25.4418 75.028 52.1621 81.6459 66.4814L76.1995 68.9986ZM41.7771 -0.863544C56.5071 9.33025 71.1616 21.8421 83.5696 32.433L79.6743 36.9966C67.2232 26.3689 52.7997 14.0612 38.3627 4.07022L41.7771 -0.863544ZM83.5696 32.433C92.7637 40.2805 100.635 46.9943 106.525 51.1071L103.09 56.0265C96.9024 51.7061 88.7684 44.7588 79.6743 36.9966L83.5696 32.433ZM244.901 43.3665C186.077 36.1528 140.666 41.8356 106.96 56.4154L104.578 50.9085C139.553 35.7795 186.114 30.1124 245.631 37.4111L244.901 43.3665ZM106.525 51.1071C105.944 50.7015 105.204 50.6381 104.578 50.9085L106.96 56.4154C105.701 56.9602 104.237 56.8277 103.09 56.0265L106.525 51.1071ZM36.3293 4.79469C35.0219 3.03246 35.4521 0.906721 36.6272 -0.335199C37.8123 -1.58757 39.9435 -2.13249 41.7771 -0.863544L38.3627 4.07022C38.7331 4.32651 39.2479 4.47371 39.7963 4.39641C40.3049 4.32473 40.7096 4.08016 40.9854 3.78864C41.5586 3.1829 41.7854 2.07905 41.148 1.21987L36.3293 4.79469ZM76.8351 66.5235C76.1256 67.0341 75.7624 68.0528 76.1995 68.9986L81.6459 66.4814C82.4846 68.2961 81.8262 70.3239 80.3397 71.3936L76.8351 66.5235Z" fill="#03040A" mask="url(#path-1-inside-1_298_96)"/>
</g>
<path d="M88.0292 162L84.1412 162L84.1412 137.88L103.329 137.88L103.329 141.372L88.0292 141.372L88.0292 148.86L102.789 148.86L102.789 152.316L88.0292 152.316L88.0292 162ZM108.739 162L104.419 162L115.183 137.88L120.655 137.88L131.419 162L127.027 162L124.255 155.736L111.511 155.736L108.739 162ZM116.335 144.9L113.059 152.244L122.707 152.244L119.431 144.9L118.027 141.48L117.739 141.48L116.335 144.9ZM137.107 162L133.219 162L133.219 137.88L137.395 137.88L148.195 151.992L151.327 156.492L151.615 156.492L151.435 152.136L151.435 137.88L155.323 137.88L155.323 162L151.147 162L140.275 147.924L137.251 143.676L136.963 143.676L137.107 147.852L137.107 162ZM176.267 162L165.287 162L165.287 137.88L176.267 137.88C183.755 137.88 188.471 142.488 188.471 149.94C188.471 157.392 183.755 162 176.267 162ZM176.267 141.372L169.139 141.372L169.139 158.508L176.267 158.508C181.847 158.508 184.367 156.132 184.367 149.94C184.367 143.748 181.847 141.372 176.267 141.372ZM210.664 162L191.368 162L191.368 137.88L210.664 137.88L210.664 141.372L195.256 141.372L195.256 148.14L210.124 148.14L210.124 151.596L195.256 151.596L195.256 158.508L210.664 158.508L210.664 162ZM224.888 162L213.908 162L213.908 137.88L224.888 137.88C232.376 137.88 237.092 142.488 237.092 149.94C237.092 157.392 232.376 162 224.888 162ZM224.888 141.372L217.76 141.372L217.76 158.508L224.888 158.508C230.468 158.508 232.988 156.132 232.988 149.94C232.988 143.748 230.468 141.372 224.888 141.372ZM243.877 162L239.989 162L239.989 137.88L243.877 137.88L243.877 162ZM259.213 162.36C251.725 162.36 246.757 157.464 246.757 149.94C246.757 142.416 251.725 137.52 259.213 137.52C266.017 137.52 270.769 141.12 270.769 146.88L270.769 147.384L266.485 147.384L266.485 146.88C266.485 143.208 264.145 141.228 259.249 141.228C253.597 141.228 250.861 143.928 250.861 149.94C250.861 155.952 253.597 158.616 259.249 158.616C264.145 158.616 266.485 156.672 266.485 152.964L266.485 152.496L270.769 152.496L270.769 152.964C270.769 158.76 266.053 162.36 259.213 162.36ZM276.153 162L271.833 162L282.597 137.88L288.069 137.88L298.833 162L294.441 162L291.669 155.736L278.925 155.736L276.153 162ZM283.749 144.9L280.473 152.244L290.121 152.244L286.845 144.9L285.441 141.48L285.153 141.48L283.749 144.9ZM312.621 162L308.769 162L308.769 141.372L299.265 141.372L299.265 137.88L322.089 137.88L322.089 141.372L312.621 141.372L312.621 162ZM328.252 162L324.364 162L324.364 137.88L328.252 137.88L328.252 162ZM343.696 162.36C336.136 162.36 331.132 157.464 331.132 149.94C331.132 142.416 336.136 137.52 343.696 137.52C351.328 137.52 356.296 142.416 356.296 149.94C356.296 157.464 351.328 162.36 343.696 162.36ZM343.696 158.616C349.42 158.616 352.192 155.952 352.192 149.94C352.192 143.928 349.42 141.228 343.696 141.228C337.972 141.228 335.236 143.928 335.236 149.94C335.236 155.952 337.972 158.616 343.696 158.616ZM363.056 162L359.168 162L359.168 137.88L363.344 137.88L374.144 151.992L377.276 156.492L377.564 156.492L377.384 152.136L377.384 137.88L381.272 137.88L381.272 162L377.096 162L366.224 147.924L363.2 143.676L362.912 143.676L363.056 147.852L363.056 162ZM95.3065 210L91.4185 210L91.4185 185.88L96.7105 185.88L103.659 199.848L105.855 204.852L106.143 204.852L108.267 199.848L115.143 185.88L120.435 185.88L120.435 210L116.547 210L116.547 195.204L116.691 191.712L116.403 191.712L114.927 195.204L108.267 208.56L103.587 208.56L96.9265 195.204L95.4505 191.712L95.1625 191.712L95.3065 195.204L95.3065 210ZM143.34 210L124.044 210L124.044 185.88L143.34 185.88L143.34 189.372L127.932 189.372L127.932 196.14L142.8 196.14L142.8 199.596L127.932 199.596L127.932 206.508L143.34 206.508L143.34 210ZM165.664 210L146.368 210L146.368 185.88L165.664 185.88L165.664 189.372L150.256 189.372L150.256 196.14L165.124 196.14L165.124 199.596L150.256 199.596L150.256 206.508L165.664 206.508L165.664 210ZM180.68 210L176.828 210L176.828 189.372L167.324 189.372L167.324 185.88L190.148 185.88L190.148 189.372L180.68 189.372L180.68 210ZM202.538 210.36C195.338 210.36 191.666 207.192 191.666 202.116L191.666 201.9L195.554 201.9L195.554 202.476C195.554 205.356 197.246 206.796 202.538 206.796C207.146 206.796 208.766 205.788 208.766 203.52C208.766 201.432 207.542 200.64 204.482 200.064L198.578 199.092C194.51 198.372 191.63 196.5 191.63 192.54C191.63 189.048 194.51 185.52 201.998 185.52C209.054 185.52 212.258 189.048 212.258 193.764L212.258 193.98L208.406 193.98L208.406 193.512C208.406 190.56 206.642 189.084 201.638 189.084C197.246 189.084 195.518 190.164 195.518 192.324C195.518 194.412 196.742 195.096 199.586 195.708L205.454 196.716C210.278 197.58 212.654 199.776 212.654 203.304C212.654 206.976 209.666 210.36 202.538 210.36ZM225.455 210L221.567 210L221.567 185.88L233.375 185.88C238.739 185.88 242.411 188.94 242.411 194.304C242.411 199.632 238.739 202.728 233.375 202.728L225.455 202.728L225.455 210ZM233.015 189.372L225.455 189.372L225.455 199.236L233.015 199.236C236.651 199.236 238.523 197.868 238.523 194.304C238.523 190.74 236.651 189.372 233.015 189.372ZM248.623 210L244.735 210L244.735 185.88L257.263 185.88C262.735 185.88 266.119 188.472 266.119 192.972C266.119 196.968 263.491 199.416 258.955 199.668L258.955 199.92C260.827 200.424 261.691 201.504 262.555 203.016L266.587 210L262.123 210L258.271 203.34C257.191 201.432 256.075 200.64 253.051 200.64L248.623 200.64L248.623 210ZM248.623 189.372L248.623 197.652L257.227 197.652C260.467 197.652 262.087 196.536 262.087 193.512C262.087 190.56 260.467 189.372 257.227 189.372L248.623 189.372ZM272.81 210L268.922 210L268.922 185.88L272.81 185.88L272.81 210ZM288.255 210.36C280.695 210.36 275.691 205.464 275.691 197.94C275.691 190.416 280.695 185.52 288.255 185.52C295.887 185.52 300.855 190.416 300.855 197.94C300.855 205.464 295.887 210.36 288.255 210.36ZM288.255 206.616C293.979 206.616 296.751 203.952 296.751 197.94C296.751 191.928 293.979 189.228 288.255 189.228C282.531 189.228 279.795 191.928 279.795 197.94C279.795 203.952 282.531 206.616 288.255 206.616ZM307.615 210L303.727 210L303.727 185.88L316.255 185.88C321.727 185.88 325.111 188.472 325.111 192.972C325.111 196.968 322.483 199.416 317.947 199.668L317.947 199.92C319.819 200.424 320.683 201.504 321.547 203.016L325.579 210L321.115 210L317.263 203.34C316.183 201.432 315.067 200.64 312.043 200.64L307.615 200.64L307.615 210ZM307.615 189.372L307.615 197.652L316.219 197.652C319.459 197.652 321.079 196.536 321.079 193.512C321.079 190.56 319.459 189.372 316.219 189.372L307.615 189.372ZM331.803 210L327.915 210L327.915 185.88L331.803 185.88L331.803 210ZM347.391 210L343.539 210L343.539 189.372L334.035 189.372L334.035 185.88L356.859 185.88L356.859 189.372L347.391 189.372L347.391 210ZM371.517 210L367.665 210L367.665 201.684L357.081 185.88L361.833 185.88L367.521 194.448L369.537 197.508L369.825 197.508L371.805 194.448L377.457 185.88L382.245 185.88L371.517 201.756L371.517 210ZM166.29 258L161.97 258L172.734 233.88L178.206 233.88L188.97 258L184.578 258L181.806 251.736L169.062 251.736L166.29 258ZM173.886 240.9L170.61 248.244L180.258 248.244L176.982 240.9L175.578 237.48L175.29 237.48L173.886 240.9ZM202.506 258.36C195.018 258.36 190.05 253.464 190.05 245.94C190.05 238.416 195.018 233.52 202.506 233.52C209.31 233.52 214.062 237.12 214.062 242.88L214.062 243.384L209.778 243.384L209.778 242.88C209.778 239.208 207.438 237.228 202.542 237.228C196.89 237.228 194.154 239.928 194.154 245.94C194.154 251.952 196.89 254.616 202.542 254.616C207.438 254.616 209.778 252.672 209.778 248.964L209.778 248.496L214.062 248.496L214.062 248.964C214.062 254.76 209.346 258.36 202.506 258.36ZM228.662 258.36C221.174 258.36 216.206 253.464 216.206 245.94C216.206 238.416 221.174 233.52 228.662 233.52C235.466 233.52 240.218 237.12 240.218 242.88L240.218 243.384L235.934 243.384L235.934 242.88C235.934 239.208 233.594 237.228 228.698 237.228C223.046 237.228 220.31 239.928 220.31 245.94C220.31 251.952 223.046 254.616 228.698 254.616C233.594 254.616 235.934 252.672 235.934 248.964L235.934 248.496L240.218 248.496L240.218 248.964C240.218 254.76 235.502 258.36 228.662 258.36ZM262.379 258L243.083 258L243.083 233.88L262.379 233.88L262.379 237.372L246.971 237.372L246.971 244.14L261.839 244.14L261.839 247.596L246.971 247.596L246.971 254.508L262.379 254.508L262.379 258ZM275.523 258.36C268.323 258.36 264.651 255.192 264.651 250.116L264.651 249.9L268.539 249.9L268.539 250.476C268.539 253.356 270.231 254.796 275.523 254.796C280.131 254.796 281.751 253.788 281.751 251.52C281.751 249.432 280.527 248.64 277.467 248.064L271.563 247.092C267.495 246.372 264.615 244.5 264.615 240.54C264.615 237.048 267.495 233.52 274.983 233.52C282.039 233.52 285.243 237.048 285.243 241.764L285.243 241.98L281.391 241.98L281.391 241.512C281.391 238.56 279.627 237.084 274.623 237.084C270.231 237.084 268.503 238.164 268.503 240.324C268.503 242.412 269.727 243.096 272.571 243.708L278.439 244.716C283.263 245.58 285.639 247.776 285.639 251.304C285.639 254.976 282.651 258.36 275.523 258.36ZM298.515 258.36C291.315 258.36 287.643 255.192 287.643 250.116L287.643 249.9L291.531 249.9L291.531 250.476C291.531 253.356 293.223 254.796 298.515 254.796C303.123 254.796 304.743 253.788 304.743 251.52C304.743 249.432 303.519 248.64 300.459 248.064L294.555 247.092C290.487 246.372 287.607 244.5 287.607 240.54C287.607 237.048 290.487 233.52 297.975 233.52C305.031 233.52 308.235 237.048 308.235 241.764L308.235 241.98L304.383 241.98L304.383 241.512C304.383 238.56 302.619 237.084 297.615 237.084C293.223 237.084 291.495 238.164 291.495 240.324C291.495 242.412 292.719 243.096 295.563 243.708L301.431 244.716C306.255 245.58 308.631 247.776 308.631 251.304C308.631 254.976 305.643 258.36 298.515 258.36Z" fill="#03040A"/>
<defs>
<filter id="filter0_d_298_96" x="24.2054" y="1.41687" width="415.94" height="342.634" filterUnits="userSpaceOnUse" color-interpolation-filters="sRGB">
<feFlood flood-opacity="0" result="BackgroundImageFix"/>
<feColorMatrix in="SourceAlpha" type="matrix" values="0 0 0 0 0 0 0 0 0 0 0 0 0 0 0 0 0 0 127 0" result="hardAlpha"/>
<feOffset dx="10" dy="5"/>
<feComposite in2="hardAlpha" operator="out"/>
<feColorMatrix type="matrix" values="0 0 0 0 0 0 0 0 0 0 0 0 0 0 0 0 0 0 1 0"/>
<feBlend mode="normal" in2="BackgroundImageFix" result="effect1_dropShadow_298_96"/>
<feBlend mode="normal" in="SourceGraphic" in2="effect1_dropShadow_298_96" result="shape"/>
</filter>
</defs>
</svg>
