<svg width="453" height="358" viewBox="0 0 453 358" fill="none" xmlns="http://www.w3.org/2000/svg">
<g filter="url(#filter0_d_298_101)">
<mask id="path-1-inside-1_298_101" fill="white">
<path fill-rule="evenodd" clip-rule="evenodd" d="M215.966 38.3271C354.612 22.1466 425.642 80.8263 435.153 162.327C444.665 243.827 411.254 314.696 250.41 333.467C111.035 349.732 40.7336 290.968 31.2222 209.467C26.762 171.249 35.4209 134.94 60.735 105.419C61.0466 105.055 61.071 104.53 60.7733 104.156C51.1251 92.0055 29.517 69.9388 6.44993 50.7322C5.58584 50.0127 6.36287 48.6502 7.41233 49.0538C23.9654 55.4202 41.022 64.049 55.6039 71.4259C66.3314 76.8528 75.7196 81.6022 82.5828 84.2749C82.9047 84.4003 83.2644 84.3485 83.5402 84.1404C113.405 61.6027 156.754 45.2373 215.966 38.3271Z"/>
</mask>
<path fill-rule="evenodd" clip-rule="evenodd" d="M215.966 38.3271C354.612 22.1466 425.642 80.8263 435.153 162.327C444.665 243.827 411.254 314.696 250.41 333.467C111.035 349.732 40.7336 290.968 31.2222 209.467C26.762 171.249 35.4209 134.94 60.735 105.419C61.0466 105.055 61.071 104.53 60.7733 104.156C51.1251 92.0055 29.517 69.9388 6.44993 50.7322C5.58584 50.0127 6.36287 48.6502 7.41233 49.0538C23.9654 55.4202 41.022 64.049 55.6039 71.4259C66.3314 76.8528 75.7196 81.6022 82.5828 84.2749C82.9047 84.4003 83.2644 84.3485 83.5402 84.1404C113.405 61.6027 156.754 45.2373 215.966 38.3271Z" fill="#FFF59F"/>
<path d="M250.41 333.467L250.757 336.447L250.41 333.467ZM55.6039 71.4259L56.9582 68.7489L56.9582 68.7489L55.6039 71.4259ZM82.5828 84.2749L83.6714 81.4794L82.5828 84.2749ZM83.5402 84.1404L81.7331 81.7457L83.5402 84.1404ZM6.44993 50.7322L4.53032 53.0377L6.44993 50.7322ZM7.41233 49.0538L6.33542 51.8538L7.41233 49.0538ZM60.735 105.419L63.0124 107.372L60.735 105.419ZM60.7733 104.156L58.424 106.021L60.7733 104.156ZM432.174 162.675C427.515 122.754 407.836 88.5492 372.387 66.2355C336.866 43.8767 285.199 33.2677 216.314 41.3069L215.618 35.3473C285.379 27.2059 338.55 37.8466 375.583 61.1577C412.688 84.5138 433.281 120.399 438.133 161.979L432.174 162.675ZM250.062 330.487C330.164 321.139 377.872 298.881 404.437 269.412C430.917 240.036 436.873 202.941 432.174 162.675L438.133 161.979C442.945 203.214 436.951 242.303 408.893 273.429C380.919 304.462 331.5 327.024 250.757 336.447L250.062 330.487ZM34.202 209.119C38.8621 249.051 58.3659 283.273 93.7188 305.592C129.145 327.958 180.809 338.569 250.062 330.487L250.757 336.447C180.636 344.63 127.462 333.991 90.5157 310.666C53.4963 287.294 33.0937 251.384 28.2424 209.815L34.202 209.119ZM63.0124 107.372C38.3275 136.159 29.8227 171.595 34.202 209.119L28.2424 209.815C23.7014 170.904 32.5144 133.721 58.4577 103.466L63.0124 107.372ZM58.424 106.021C48.9373 94.0745 27.4875 72.1527 4.53032 53.0377L8.36954 48.4268C31.5466 67.7249 53.3129 89.9364 63.1227 102.29L58.424 106.021ZM8.48924 46.2537C25.2086 52.6841 42.4016 61.3848 56.9582 68.7489L54.2497 74.1028C39.6424 66.7131 22.7222 58.1563 6.33542 51.8538L8.48924 46.2537ZM56.9582 68.7489C67.7443 74.2055 76.9771 78.8725 83.6714 81.4794L81.4941 87.0704C74.462 84.332 64.9185 79.5001 54.2497 74.1028L56.9582 68.7489ZM216.314 41.3069C157.449 48.1766 114.661 64.414 85.3473 86.535L81.7331 81.7457C112.15 58.7915 156.06 42.298 215.618 35.3473L216.314 41.3069ZM83.6714 81.4794C83.0112 81.2223 82.2769 81.3354 81.7331 81.7457L85.3473 86.535C84.252 87.3616 82.7981 87.5782 81.4941 87.0704L83.6714 81.4794ZM4.53032 53.0377C2.84411 51.6337 2.76054 49.4664 3.60945 47.9823C4.46551 46.4857 6.40797 45.4533 8.48924 46.2537L6.33542 51.8538C6.75578 52.0155 7.29082 52.0371 7.80551 51.8326C8.28282 51.6429 8.61837 51.3097 8.81764 50.9614C9.2317 50.2375 9.19166 49.1113 8.36954 48.4268L4.53032 53.0377ZM58.4577 103.466C57.8887 104.13 57.7761 105.205 58.424 106.021L63.1227 102.29C64.3659 103.855 64.2045 105.981 63.0124 107.372L58.4577 103.466Z" fill="#03040A" mask="url(#path-1-inside-1_298_101)"/>
</g>
<path d="M85.4624 194.46C79.2431 195.97 75.4068 194.004 74.3422 189.619L74.2969 189.432L77.6553 188.617L77.7761 189.115C78.3801 191.602 80.1437 192.491 84.7149 191.381C88.6952 190.415 89.8831 189.204 89.4074 187.245C88.9695 185.442 87.7461 185.014 84.9821 185.159L79.6784 185.557C76.0135 185.789 73.1332 184.776 72.3026 181.355C71.5702 178.339 73.318 174.687 79.786 173.117C85.8809 171.637 89.3885 174.012 90.3776 178.086L90.4229 178.272L87.0956 179.08L86.9974 178.676C86.3783 176.126 84.545 175.221 80.2226 176.271C76.4288 177.192 75.1627 178.487 75.6157 180.353C76.0537 182.156 77.2544 182.491 79.8394 182.423L85.1195 182.063C89.4677 181.797 91.9806 183.196 92.7206 186.243C93.4907 189.415 91.6195 192.965 85.4624 194.46ZM99.8676 190.633L96.5092 191.448L91.4503 170.614L96.0215 169.504L104.953 180.112L107.899 183.974L108.148 183.913L108.933 179.145L111.943 165.638L116.514 164.528L121.573 185.363L118.214 186.178L115.111 173.397L114.503 170.351L114.254 170.411L113.712 173.737L110.76 186.671L106.718 187.652L98.1637 177.512L96.1563 174.806L95.9075 174.866L96.7643 177.852L99.8676 190.633ZM126.867 184.077L123.136 184.983L127.374 161.891L132.101 160.743L146.458 179.32L142.664 180.241L138.956 175.412L127.948 178.085L126.867 184.077ZM129.842 167.713L128.552 174.744L136.886 172.72L132.516 167.064L130.586 164.404L130.337 164.464L129.842 167.713ZM151.371 178.127L148.013 178.943L142.954 158.108L153.775 155.48C158.502 154.333 161.969 155.862 162.913 159.749C163.751 163.201 161.994 165.866 158.129 167.036L158.182 167.253C159.904 167.296 160.877 168.048 161.941 169.172L166.888 174.359L163.032 175.296L158.308 170.351C156.975 168.929 155.845 168.479 153.233 169.113L149.408 170.042L151.371 178.127ZM147.045 160.309L148.781 167.461L156.213 165.657C159.012 164.977 160.177 163.673 159.543 161.061C158.924 158.511 157.275 157.825 154.477 158.504L147.045 160.309ZM179.261 171.355L175.933 172.163L171.607 154.345L163.397 156.338L162.665 153.322L182.38 148.535L183.113 151.551L174.934 153.537L179.261 171.355ZM204.931 165.452C198.463 167.022 193.145 163.835 191.567 157.336C189.989 150.837 193.253 145.566 199.721 143.995C205.598 142.568 210.458 144.681 211.666 149.656L211.772 150.092L208.071 150.99L207.966 150.555C207.196 147.383 204.759 146.164 200.53 147.19C195.648 148.376 193.851 151.282 195.112 156.475C196.373 161.668 199.295 163.395 204.177 162.21C208.406 161.183 210.019 159.013 209.242 155.81L209.144 155.406L212.844 154.507L212.942 154.912C214.158 159.918 210.839 164.017 204.931 165.452ZM227.618 159.943C221.088 161.529 215.738 158.349 214.16 151.85C212.582 145.351 215.878 140.072 222.408 138.486C229 136.886 234.319 140.073 235.897 146.572C237.475 153.071 234.21 158.342 227.618 159.943ZM226.833 156.709C231.777 155.508 233.613 152.626 232.352 147.433C231.091 142.24 228.13 140.489 223.186 141.689C218.241 142.89 216.444 145.796 217.705 150.989C218.966 156.182 221.888 157.909 226.833 156.709ZM244.266 155.571L240.907 156.387L235.848 135.552L239.456 134.676L251.744 144.601L255.393 147.831L255.642 147.771L254.573 144.046L251.583 131.732L254.942 130.916L260 151.751L256.393 152.627L244.05 142.748L240.547 139.713L240.298 139.773L241.298 143.35L244.266 155.571ZM273.461 148.482L270.134 149.29L265.807 131.472L257.598 133.465L256.865 130.449L276.581 125.662L277.313 128.678L269.135 130.664L273.461 148.482ZM286.962 145.204L283.604 146.02L278.545 125.185L289.367 122.557C294.093 121.41 297.56 122.939 298.504 126.826C299.342 130.278 297.585 132.943 293.72 134.112L293.773 134.33C295.496 134.373 296.469 135.124 297.532 136.249L302.48 141.436L298.624 142.373L293.899 137.428C292.566 136.006 291.436 135.556 288.824 136.19L284.999 137.119L286.962 145.204ZM282.636 127.386L284.373 134.538L291.805 132.733C294.603 132.054 295.769 130.75 295.134 128.138C294.515 125.588 292.867 124.902 290.068 125.581L282.636 127.386ZM306.674 140.418L302.942 141.324L307.181 118.232L311.908 117.084L326.264 135.661L322.471 136.582L318.762 131.753L307.754 134.426L306.674 140.418ZM309.649 124.054L308.359 131.085L316.693 129.061L312.323 123.405L310.393 120.745L310.144 120.805L309.649 124.054ZM338.032 133.133C331.564 134.704 326.246 131.516 324.668 125.017C323.09 118.518 326.354 113.247 332.822 111.677C338.7 110.25 343.559 112.362 344.767 117.338L344.873 117.773L341.173 118.672L341.067 118.236C340.297 115.065 337.86 113.845 333.631 114.872C328.749 116.057 326.952 118.963 328.213 124.157C329.474 129.35 332.396 131.077 337.278 129.892C341.507 128.865 343.121 126.695 342.343 123.492L342.245 123.087L345.945 122.189L346.044 122.593C347.259 127.6 343.941 131.699 338.032 133.133ZM360.768 127.283L357.441 128.091L353.114 110.273L344.905 112.266L344.172 109.25L363.887 104.463L364.62 107.479L356.441 109.465L360.768 127.283ZM379.725 123.01C373.505 124.52 369.669 122.554 368.604 118.169L368.559 117.982L371.917 117.167L372.038 117.664C372.642 120.152 374.406 121.041 378.977 119.931C382.957 118.965 384.145 117.754 383.67 115.795C383.232 113.992 382.008 113.564 379.244 113.708L373.941 114.107C370.276 114.338 367.395 113.325 366.565 109.905C365.832 106.888 367.58 103.237 374.048 101.666C380.143 100.187 383.651 102.562 384.64 106.636L384.685 106.822L381.358 107.63L381.26 107.226C380.64 104.676 378.807 103.771 374.485 104.821C370.691 105.742 369.425 107.037 369.878 108.903C370.316 110.706 371.517 111.041 374.102 110.973L379.382 110.613C383.73 110.347 386.243 111.746 386.983 114.793C387.753 117.965 385.882 121.515 379.725 123.01ZM392.177 123.345L391.057 123.617L390.559 121.565L391.585 121.315C392.114 121.187 392.332 121.002 392.174 120.349L392.015 119.696L390.149 120.149L388.979 115.329L393.208 114.302L394.53 119.744C394.998 121.672 394.105 122.877 392.177 123.345ZM146.489 229.037C140.363 230.524 135.263 227.284 133.685 220.785C132.107 214.286 135.464 208.992 142.119 207.376C148.027 205.942 152.857 207.93 154.027 212.75L154.088 212.999L150.387 213.897L150.327 213.649C149.602 210.663 147.126 209.552 142.803 210.602C137.797 211.817 135.969 214.731 137.23 219.924C138.491 225.117 141.413 226.844 146.295 225.659C151.27 224.451 152.897 222.607 152.044 219.093L151.976 218.813L144.264 220.686L143.645 218.136L154.684 215.455L157.266 226.09L154.219 226.83L153.124 222.321L152.906 222.374C152.776 225.633 150.563 228.047 146.489 229.037ZM169.813 223.373C163.594 224.883 159.248 222.448 157.874 216.788L154.914 204.599L158.242 203.791L161.149 215.763C162.168 219.961 164.457 221.249 169.028 220.139C173.599 219.029 175.042 216.835 174.023 212.637L171.116 200.665L174.474 199.849L177.434 212.039C178.808 217.699 176.063 221.856 169.813 223.373ZM184.686 219.433L180.954 220.339L185.193 197.247L189.92 196.099L204.276 214.676L200.483 215.597L196.775 210.768L185.766 213.441L184.686 219.433ZM187.661 203.069L186.371 210.1L194.705 208.076L190.335 202.419L188.405 199.76L188.156 199.82L187.661 203.069ZM209.19 213.483L205.831 214.298L200.772 193.464L211.594 190.836C216.321 189.688 219.787 191.218 220.731 195.105C221.569 198.556 219.813 201.222 215.947 202.391L216 202.609C217.723 202.652 218.696 203.403 219.759 204.528L224.707 209.715L220.851 210.651L216.127 205.706C214.794 204.285 213.664 203.835 211.051 204.469L207.227 205.398L209.19 213.483ZM204.863 195.665L206.6 202.817L214.032 201.012C216.831 200.333 217.996 199.029 217.362 196.417C216.742 193.867 215.094 193.18 212.295 193.86L204.863 195.665ZM228.901 208.697L225.169 209.603L229.408 186.511L234.135 185.363L248.492 203.94L244.698 204.861L240.99 200.032L229.982 202.705L228.901 208.697ZM231.876 192.333L230.586 199.364L238.92 197.34L234.55 191.683L232.62 189.024L232.371 189.084L231.876 192.333ZM253.405 202.747L250.047 203.562L244.988 182.728L248.595 181.852L260.884 191.777L264.533 195.007L264.782 194.946L263.713 191.221L260.722 178.907L264.081 178.092L269.14 198.926L265.533 199.802L253.189 189.924L249.686 186.889L249.437 186.949L250.438 190.526L253.405 202.747ZM282.6 195.658L279.273 196.466L274.947 178.648L266.737 180.641L266.005 177.625L285.72 172.838L286.452 175.854L278.274 177.84L282.6 195.658ZM309.411 189.148L292.743 193.195L287.685 172.361L304.352 168.313L305.085 171.33L291.775 174.561L293.195 180.408L306.038 177.289L306.763 180.274L293.92 183.393L295.369 189.363L308.679 186.132L309.411 189.148ZM328.695 184.466L312.027 188.513L306.968 167.678L323.636 163.631L324.368 166.648L311.059 169.879L312.478 175.725L325.321 172.607L326.046 175.592L313.203 178.711L314.653 184.681L327.962 181.449L328.695 184.466ZM340.981 181.482L331.497 183.785L326.438 162.951L335.922 160.648C342.39 159.077 347.431 162.069 348.994 168.506C350.557 174.942 347.449 179.912 340.981 181.482ZM336.655 163.664L330.498 165.159L334.092 179.961L340.249 178.466C345.069 177.296 346.747 174.715 345.449 169.366C344.15 164.018 341.475 162.494 336.655 163.664ZM189.556 267.645L186.197 268.46L181.138 247.626L191.96 244.998C196.687 243.85 200.153 245.38 201.097 249.267C201.935 252.718 200.179 255.384 196.313 256.553L196.366 256.771C198.089 256.814 199.062 257.565 200.125 258.69L205.073 263.877L201.217 264.813L196.493 259.869C195.16 258.447 194.03 257.997 191.417 258.631L187.593 259.56L189.556 267.645ZM185.229 249.827L186.966 256.979L194.398 255.174C197.197 254.495 198.362 253.191 197.728 250.579C197.109 248.029 195.46 247.343 192.661 248.022L185.229 249.827ZM223.758 259.34L207.09 263.387L202.031 242.553L218.699 238.506L219.432 241.522L206.122 244.754L207.542 250.6L220.385 247.481L221.109 250.467L208.267 253.585L209.716 259.556L223.026 256.324L223.758 259.34ZM229.732 257.89L226.374 258.705L221.315 237.871L237.889 233.846L238.622 236.862L225.406 240.071L226.976 246.539L239.726 243.444L240.451 246.429L227.701 249.525L229.732 257.89ZM255.16 252.045C248.941 253.555 244.595 251.119 243.221 245.46L240.261 233.27L243.589 232.462L246.496 244.434C247.515 248.632 249.804 249.921 254.375 248.811C258.946 247.701 260.389 245.506 259.37 241.308L256.463 229.336L259.821 228.521L262.781 240.711C264.155 246.37 261.41 250.527 255.16 252.045ZM271.214 247.817L267.856 248.633L262.797 227.798L266.404 226.922L278.693 236.847L282.342 240.077L282.591 240.017L281.522 236.292L278.532 223.978L281.89 223.162L286.949 243.997L283.342 244.873L270.999 234.994L267.495 231.959L267.247 232.019L268.247 235.596L271.214 247.817ZM299.726 240.894L290.241 243.197L285.182 222.363L294.667 220.06C301.135 218.489 306.175 221.481 307.738 227.918C309.301 234.354 306.194 239.324 299.726 240.894ZM295.399 223.076L289.242 224.571L292.836 239.373L298.993 237.878C303.813 236.708 305.492 234.127 304.193 228.778C302.894 223.43 300.219 221.906 295.399 223.076ZM321.583 235.917C315.364 237.427 311.528 235.46 310.463 231.076L310.418 230.889L313.776 230.074L313.897 230.571C314.501 233.059 316.265 233.948 320.836 232.838C324.816 231.871 326.004 230.661 325.528 228.702C325.09 226.898 323.867 226.471 321.103 226.615L315.799 227.014C312.134 227.245 309.254 226.232 308.423 222.812C307.691 219.795 309.439 216.144 315.907 214.573C322.002 213.093 325.509 215.469 326.498 219.542L326.544 219.729L323.216 220.537L323.118 220.133C322.499 217.583 320.666 216.678 316.343 217.727C312.55 218.648 311.284 219.944 311.737 221.81C312.174 223.613 313.375 223.947 315.96 223.879L321.24 223.519C325.588 223.254 328.101 224.652 328.841 227.7C329.612 230.872 327.74 234.422 321.583 235.917Z" fill="#03040A"/>
<defs>
<filter id="filter0_d_298_101" x="0.0783691" y="35.6345" width="436.556" height="305.548" filterUnits="userSpaceOnUse" color-interpolation-filters="sRGB">
<feFlood flood-opacity="0" result="BackgroundImageFix"/>
<feColorMatrix in="SourceAlpha" type="matrix" values="0 0 0 0 0 0 0 0 0 0 0 0 0 0 0 0 0 0 127 0" result="hardAlpha"/>
<feOffset dx="-6" dy="5"/>
<feComposite in2="hardAlpha" operator="out"/>
<feColorMatrix type="matrix" values="0 0 0 0 0 0 0 0 0 0 0 0 0 0 0 0 0 0 1 0"/>
<feBlend mode="normal" in2="BackgroundImageFix" result="effect1_dropShadow_298_101"/>
<feBlend mode="normal" in="SourceGraphic" in2="effect1_dropShadow_298_101" result="shape"/>
</filter>
</defs>
</svg>
