<svg width="736" height="382" viewBox="0 0 736 382" fill="none" xmlns="http://www.w3.org/2000/svg">
<g filter="url(#filter0_d_196_109)">
<mask id="path-1-outside-1_196_109" maskUnits="userSpaceOnUse" x="0" y="0" width="730" height="376" fill="black">
<rect fill="white" width="730" height="376"/>
<path d="M723.962 27.8312V6H189.959V20.2654C189.959 21.2108 189.585 22.1173 188.918 22.7858C188.251 23.4542 187.346 23.8298 186.403 23.8298C185.459 23.8298 184.555 23.4542 183.888 22.7858C183.22 22.1173 182.846 21.2108 182.846 20.2654V6H6.0306V27.8312C10.8365 27.8312 15.4455 29.7444 18.8438 33.1499C22.242 36.5554 24.1512 41.1743 24.1512 45.9905C24.1512 50.8067 22.242 55.4256 18.8438 58.8311C15.4455 62.2366 10.8365 64.1499 6.0306 64.1499V74.5288C10.8365 74.5288 15.4455 76.4421 18.8438 79.8477C22.242 83.2532 24.1512 87.8721 24.1512 92.6883C24.1512 97.5044 22.242 102.123 18.8438 105.529C15.4455 108.934 10.8365 110.848 6.0306 110.848V121.227C8.41087 121.226 10.768 121.695 12.9674 122.607C15.1668 123.519 17.1653 124.856 18.8487 126.543C20.5322 128.229 21.8676 130.231 22.7787 132.435C23.6899 134.639 24.1588 137.001 24.1588 139.386C24.1523 141.121 23.8946 142.846 23.3939 144.506C22.2895 148.271 19.9977 151.575 16.8619 153.924C13.7261 156.273 9.91518 157.541 6 157.538V167.917C10.8059 167.917 15.4149 169.83 18.8132 173.235C22.2114 176.641 24.1206 181.26 24.1206 186.076C24.1206 190.892 22.2114 195.511 18.8132 198.917C15.4149 202.322 10.8059 204.235 6 204.235V214.614C10.8059 214.614 15.4149 216.528 18.8132 219.933C22.2114 223.339 24.1206 227.958 24.1206 232.774C24.1206 237.59 22.2114 242.209 18.8132 245.614C15.4149 249.02 10.8059 250.933 6 250.933V261.312C10.8059 261.312 15.4149 263.225 18.8132 266.631C22.2114 270.036 24.1206 274.655 24.1206 279.471C24.1206 284.288 22.2114 288.907 18.8132 292.312C15.4149 295.718 10.8059 297.631 6 297.631V308.01C10.8038 308.01 15.4109 309.922 18.8078 313.326C22.2046 316.73 24.1129 321.347 24.1129 326.161C24.1129 330.976 22.2046 335.593 18.8078 338.997C15.4109 342.401 10.8038 344.313 6 344.313V370H182.884V354.907C182.884 353.961 183.259 353.055 183.926 352.386C184.593 351.718 185.497 351.342 186.441 351.342C187.384 351.342 188.289 351.718 188.956 352.386C189.623 353.055 189.998 353.961 189.998 354.907V370H724V344.321C719.196 344.321 714.589 342.408 711.192 339.004C707.795 335.6 705.887 330.983 705.887 326.169C705.887 321.355 707.795 316.738 711.192 313.334C714.589 309.93 719.196 308.017 724 308.017V297.638C719.194 297.638 714.585 295.725 711.187 292.32C707.789 288.914 705.879 284.295 705.879 279.479C705.879 274.663 707.789 270.044 711.187 266.638C714.585 263.233 719.194 261.32 724 261.32V250.956C719.194 250.956 714.585 249.043 711.187 245.637C707.789 242.232 705.879 237.613 705.879 232.797C705.879 227.981 707.789 223.362 711.187 219.956C714.585 216.55 719.194 214.637 724 214.637V204.258C719.194 204.258 714.585 202.345 711.187 198.94C707.789 195.534 705.879 190.915 705.879 186.099C705.879 181.283 707.789 176.664 711.187 173.258C714.585 169.853 719.194 167.94 724 167.94V157.561C719.194 157.561 714.585 155.647 711.187 152.242C707.789 148.836 705.879 144.217 705.879 139.401C705.879 134.585 707.789 129.966 711.187 126.561C714.585 123.155 719.194 121.242 724 121.242V110.863C719.194 110.863 714.585 108.95 711.187 105.544C707.789 102.139 705.879 97.5198 705.879 92.7036C705.879 87.8874 707.789 83.2684 711.187 79.8629C714.585 76.4574 719.194 74.5442 724 74.5442V64.1499C719.194 64.1499 714.585 62.2366 711.187 58.8311C707.789 55.4256 705.879 50.8067 705.879 45.9905C705.879 41.1743 707.789 36.5554 711.187 33.1499C714.585 29.7444 719.194 27.8312 724 27.8312H723.962ZM182.884 36.585C182.884 35.6397 183.259 34.7331 183.926 34.0647C184.593 33.3962 185.497 33.0206 186.441 33.0206C187.384 33.0206 188.289 33.3962 188.956 34.0647C189.623 34.7331 189.998 35.6397 189.998 36.585V83.9343C189.998 84.8797 189.623 85.7863 188.956 86.4548C188.289 87.1232 187.384 87.4987 186.441 87.4987C185.497 87.4987 184.593 87.1232 183.926 86.4548C183.259 85.7863 182.884 84.8797 182.884 83.9343V36.585ZM182.884 100.254C182.884 99.3087 183.259 98.402 183.926 97.7336C184.593 97.0651 185.497 96.6896 186.441 96.6896C187.384 96.6896 188.289 97.0651 188.956 97.7336C189.623 98.402 189.998 99.3087 189.998 100.254V147.603C189.998 148.549 189.623 149.455 188.956 150.124C188.289 150.792 187.384 151.168 186.441 151.168C185.497 151.168 184.593 150.792 183.926 150.124C183.259 149.455 182.884 148.549 182.884 147.603V100.254ZM182.884 163.877C182.884 162.932 183.259 162.025 183.926 161.357C184.593 160.688 185.497 160.313 186.441 160.313C187.384 160.313 188.289 160.688 188.956 161.357C189.623 162.025 189.998 162.932 189.998 163.877V211.226C189.998 212.172 189.623 213.078 188.956 213.747C188.289 214.415 187.384 214.791 186.441 214.791C185.497 214.791 184.593 214.415 183.926 213.747C183.259 213.078 182.884 212.172 182.884 211.226V163.877ZM189.998 338.564C189.998 339.509 189.623 340.416 188.956 341.084C188.289 341.753 187.384 342.128 186.441 342.128C185.497 342.128 184.593 341.753 183.926 341.084C183.259 340.416 182.884 339.509 182.884 338.564V291.215C182.884 290.269 183.259 289.363 183.926 288.694C184.593 288.026 185.497 287.65 186.441 287.65C187.384 287.65 188.289 288.026 188.956 288.694C189.623 289.363 189.998 290.269 189.998 291.215V338.564ZM189.998 274.895C189.998 275.84 189.623 276.747 188.956 277.416C188.289 278.084 187.384 278.46 186.441 278.46C185.497 278.46 184.593 278.084 183.926 277.416C183.259 276.747 182.884 275.84 182.884 274.895V227.546C182.884 226.601 183.259 225.694 183.926 225.025C184.593 224.357 185.497 223.982 186.441 223.982C187.384 223.982 188.289 224.357 188.956 225.025C189.623 225.694 189.998 226.601 189.998 227.546V274.895Z"/>
</mask>
<path d="M723.962 27.8312V6H189.959V20.2654C189.959 21.2108 189.585 22.1173 188.918 22.7858C188.251 23.4542 187.346 23.8298 186.403 23.8298C185.459 23.8298 184.555 23.4542 183.888 22.7858C183.22 22.1173 182.846 21.2108 182.846 20.2654V6H6.0306V27.8312C10.8365 27.8312 15.4455 29.7444 18.8438 33.1499C22.242 36.5554 24.1512 41.1743 24.1512 45.9905C24.1512 50.8067 22.242 55.4256 18.8438 58.8311C15.4455 62.2366 10.8365 64.1499 6.0306 64.1499V74.5288C10.8365 74.5288 15.4455 76.4421 18.8438 79.8477C22.242 83.2532 24.1512 87.8721 24.1512 92.6883C24.1512 97.5044 22.242 102.123 18.8438 105.529C15.4455 108.934 10.8365 110.848 6.0306 110.848V121.227C8.41087 121.226 10.768 121.695 12.9674 122.607C15.1668 123.519 17.1653 124.856 18.8487 126.543C20.5322 128.229 21.8676 130.231 22.7787 132.435C23.6899 134.639 24.1588 137.001 24.1588 139.386C24.1523 141.121 23.8946 142.846 23.3939 144.506C22.2895 148.271 19.9977 151.575 16.8619 153.924C13.7261 156.273 9.91518 157.541 6 157.538V167.917C10.8059 167.917 15.4149 169.83 18.8132 173.235C22.2114 176.641 24.1206 181.26 24.1206 186.076C24.1206 190.892 22.2114 195.511 18.8132 198.917C15.4149 202.322 10.8059 204.235 6 204.235V214.614C10.8059 214.614 15.4149 216.528 18.8132 219.933C22.2114 223.339 24.1206 227.958 24.1206 232.774C24.1206 237.59 22.2114 242.209 18.8132 245.614C15.4149 249.02 10.8059 250.933 6 250.933V261.312C10.8059 261.312 15.4149 263.225 18.8132 266.631C22.2114 270.036 24.1206 274.655 24.1206 279.471C24.1206 284.288 22.2114 288.907 18.8132 292.312C15.4149 295.718 10.8059 297.631 6 297.631V308.01C10.8038 308.01 15.4109 309.922 18.8078 313.326C22.2046 316.73 24.1129 321.347 24.1129 326.161C24.1129 330.976 22.2046 335.593 18.8078 338.997C15.4109 342.401 10.8038 344.313 6 344.313V370H182.884V354.907C182.884 353.961 183.259 353.055 183.926 352.386C184.593 351.718 185.497 351.342 186.441 351.342C187.384 351.342 188.289 351.718 188.956 352.386C189.623 353.055 189.998 353.961 189.998 354.907V370H724V344.321C719.196 344.321 714.589 342.408 711.192 339.004C707.795 335.6 705.887 330.983 705.887 326.169C705.887 321.355 707.795 316.738 711.192 313.334C714.589 309.93 719.196 308.017 724 308.017V297.638C719.194 297.638 714.585 295.725 711.187 292.32C707.789 288.914 705.879 284.295 705.879 279.479C705.879 274.663 707.789 270.044 711.187 266.638C714.585 263.233 719.194 261.32 724 261.32V250.956C719.194 250.956 714.585 249.043 711.187 245.637C707.789 242.232 705.879 237.613 705.879 232.797C705.879 227.981 707.789 223.362 711.187 219.956C714.585 216.55 719.194 214.637 724 214.637V204.258C719.194 204.258 714.585 202.345 711.187 198.94C707.789 195.534 705.879 190.915 705.879 186.099C705.879 181.283 707.789 176.664 711.187 173.258C714.585 169.853 719.194 167.94 724 167.94V157.561C719.194 157.561 714.585 155.647 711.187 152.242C707.789 148.836 705.879 144.217 705.879 139.401C705.879 134.585 707.789 129.966 711.187 126.561C714.585 123.155 719.194 121.242 724 121.242V110.863C719.194 110.863 714.585 108.95 711.187 105.544C707.789 102.139 705.879 97.5198 705.879 92.7036C705.879 87.8874 707.789 83.2684 711.187 79.8629C714.585 76.4574 719.194 74.5442 724 74.5442V64.1499C719.194 64.1499 714.585 62.2366 711.187 58.8311C707.789 55.4256 705.879 50.8067 705.879 45.9905C705.879 41.1743 707.789 36.5554 711.187 33.1499C714.585 29.7444 719.194 27.8312 724 27.8312H723.962ZM182.884 36.585C182.884 35.6397 183.259 34.7331 183.926 34.0647C184.593 33.3962 185.497 33.0206 186.441 33.0206C187.384 33.0206 188.289 33.3962 188.956 34.0647C189.623 34.7331 189.998 35.6397 189.998 36.585V83.9343C189.998 84.8797 189.623 85.7863 188.956 86.4548C188.289 87.1232 187.384 87.4987 186.441 87.4987C185.497 87.4987 184.593 87.1232 183.926 86.4548C183.259 85.7863 182.884 84.8797 182.884 83.9343V36.585ZM182.884 100.254C182.884 99.3087 183.259 98.402 183.926 97.7336C184.593 97.0651 185.497 96.6896 186.441 96.6896C187.384 96.6896 188.289 97.0651 188.956 97.7336C189.623 98.402 189.998 99.3087 189.998 100.254V147.603C189.998 148.549 189.623 149.455 188.956 150.124C188.289 150.792 187.384 151.168 186.441 151.168C185.497 151.168 184.593 150.792 183.926 150.124C183.259 149.455 182.884 148.549 182.884 147.603V100.254ZM182.884 163.877C182.884 162.932 183.259 162.025 183.926 161.357C184.593 160.688 185.497 160.313 186.441 160.313C187.384 160.313 188.289 160.688 188.956 161.357C189.623 162.025 189.998 162.932 189.998 163.877V211.226C189.998 212.172 189.623 213.078 188.956 213.747C188.289 214.415 187.384 214.791 186.441 214.791C185.497 214.791 184.593 214.415 183.926 213.747C183.259 213.078 182.884 212.172 182.884 211.226V163.877ZM189.998 338.564C189.998 339.509 189.623 340.416 188.956 341.084C188.289 341.753 187.384 342.128 186.441 342.128C185.497 342.128 184.593 341.753 183.926 341.084C183.259 340.416 182.884 339.509 182.884 338.564V291.215C182.884 290.269 183.259 289.363 183.926 288.694C184.593 288.026 185.497 287.65 186.441 287.65C187.384 287.65 188.289 288.026 188.956 288.694C189.623 289.363 189.998 290.269 189.998 291.215V338.564ZM189.998 274.895C189.998 275.84 189.623 276.747 188.956 277.416C188.289 278.084 187.384 278.46 186.441 278.46C185.497 278.46 184.593 278.084 183.926 277.416C183.259 276.747 182.884 275.84 182.884 274.895V227.546C182.884 226.601 183.259 225.694 183.926 225.025C184.593 224.357 185.497 223.982 186.441 223.982C187.384 223.982 188.289 224.357 188.956 225.025C189.623 225.694 189.998 226.601 189.998 227.546V274.895Z" fill="#F45B49"/>
<path d="M723.962 27.8312V6H189.959V20.2654C189.959 21.2108 189.585 22.1173 188.918 22.7858C188.251 23.4542 187.346 23.8298 186.403 23.8298C185.459 23.8298 184.555 23.4542 183.888 22.7858C183.22 22.1173 182.846 21.2108 182.846 20.2654V6H6.0306V27.8312C10.8365 27.8312 15.4455 29.7444 18.8438 33.1499C22.242 36.5554 24.1512 41.1743 24.1512 45.9905C24.1512 50.8067 22.242 55.4256 18.8438 58.8311C15.4455 62.2366 10.8365 64.1499 6.0306 64.1499V74.5288C10.8365 74.5288 15.4455 76.4421 18.8438 79.8477C22.242 83.2532 24.1512 87.8721 24.1512 92.6883C24.1512 97.5044 22.242 102.123 18.8438 105.529C15.4455 108.934 10.8365 110.848 6.0306 110.848V121.227C8.41087 121.226 10.768 121.695 12.9674 122.607C15.1668 123.519 17.1653 124.856 18.8487 126.543C20.5322 128.229 21.8676 130.231 22.7787 132.435C23.6899 134.639 24.1588 137.001 24.1588 139.386C24.1523 141.121 23.8946 142.846 23.3939 144.506C22.2895 148.271 19.9977 151.575 16.8619 153.924C13.7261 156.273 9.91518 157.541 6 157.538V167.917C10.8059 167.917 15.4149 169.83 18.8132 173.235C22.2114 176.641 24.1206 181.26 24.1206 186.076C24.1206 190.892 22.2114 195.511 18.8132 198.917C15.4149 202.322 10.8059 204.235 6 204.235V214.614C10.8059 214.614 15.4149 216.528 18.8132 219.933C22.2114 223.339 24.1206 227.958 24.1206 232.774C24.1206 237.59 22.2114 242.209 18.8132 245.614C15.4149 249.02 10.8059 250.933 6 250.933V261.312C10.8059 261.312 15.4149 263.225 18.8132 266.631C22.2114 270.036 24.1206 274.655 24.1206 279.471C24.1206 284.288 22.2114 288.907 18.8132 292.312C15.4149 295.718 10.8059 297.631 6 297.631V308.01C10.8038 308.01 15.4109 309.922 18.8078 313.326C22.2046 316.73 24.1129 321.347 24.1129 326.161C24.1129 330.976 22.2046 335.593 18.8078 338.997C15.4109 342.401 10.8038 344.313 6 344.313V370H182.884V354.907C182.884 353.961 183.259 353.055 183.926 352.386C184.593 351.718 185.497 351.342 186.441 351.342C187.384 351.342 188.289 351.718 188.956 352.386C189.623 353.055 189.998 353.961 189.998 354.907V370H724V344.321C719.196 344.321 714.589 342.408 711.192 339.004C707.795 335.6 705.887 330.983 705.887 326.169C705.887 321.355 707.795 316.738 711.192 313.334C714.589 309.93 719.196 308.017 724 308.017V297.638C719.194 297.638 714.585 295.725 711.187 292.32C707.789 288.914 705.879 284.295 705.879 279.479C705.879 274.663 707.789 270.044 711.187 266.638C714.585 263.233 719.194 261.32 724 261.32V250.956C719.194 250.956 714.585 249.043 711.187 245.637C707.789 242.232 705.879 237.613 705.879 232.797C705.879 227.981 707.789 223.362 711.187 219.956C714.585 216.55 719.194 214.637 724 214.637V204.258C719.194 204.258 714.585 202.345 711.187 198.94C707.789 195.534 705.879 190.915 705.879 186.099C705.879 181.283 707.789 176.664 711.187 173.258C714.585 169.853 719.194 167.94 724 167.94V157.561C719.194 157.561 714.585 155.647 711.187 152.242C707.789 148.836 705.879 144.217 705.879 139.401C705.879 134.585 707.789 129.966 711.187 126.561C714.585 123.155 719.194 121.242 724 121.242V110.863C719.194 110.863 714.585 108.95 711.187 105.544C707.789 102.139 705.879 97.5198 705.879 92.7036C705.879 87.8874 707.789 83.2684 711.187 79.8629C714.585 76.4574 719.194 74.5442 724 74.5442V64.1499C719.194 64.1499 714.585 62.2366 711.187 58.8311C707.789 55.4256 705.879 50.8067 705.879 45.9905C705.879 41.1743 707.789 36.5554 711.187 33.1499C714.585 29.7444 719.194 27.8312 724 27.8312H723.962ZM182.884 36.585C182.884 35.6397 183.259 34.7331 183.926 34.0647C184.593 33.3962 185.497 33.0206 186.441 33.0206C187.384 33.0206 188.289 33.3962 188.956 34.0647C189.623 34.7331 189.998 35.6397 189.998 36.585V83.9343C189.998 84.8797 189.623 85.7863 188.956 86.4548C188.289 87.1232 187.384 87.4987 186.441 87.4987C185.497 87.4987 184.593 87.1232 183.926 86.4548C183.259 85.7863 182.884 84.8797 182.884 83.9343V36.585ZM182.884 100.254C182.884 99.3087 183.259 98.402 183.926 97.7336C184.593 97.0651 185.497 96.6896 186.441 96.6896C187.384 96.6896 188.289 97.0651 188.956 97.7336C189.623 98.402 189.998 99.3087 189.998 100.254V147.603C189.998 148.549 189.623 149.455 188.956 150.124C188.289 150.792 187.384 151.168 186.441 151.168C185.497 151.168 184.593 150.792 183.926 150.124C183.259 149.455 182.884 148.549 182.884 147.603V100.254ZM182.884 163.877C182.884 162.932 183.259 162.025 183.926 161.357C184.593 160.688 185.497 160.313 186.441 160.313C187.384 160.313 188.289 160.688 188.956 161.357C189.623 162.025 189.998 162.932 189.998 163.877V211.226C189.998 212.172 189.623 213.078 188.956 213.747C188.289 214.415 187.384 214.791 186.441 214.791C185.497 214.791 184.593 214.415 183.926 213.747C183.259 213.078 182.884 212.172 182.884 211.226V163.877ZM189.998 338.564C189.998 339.509 189.623 340.416 188.956 341.084C188.289 341.753 187.384 342.128 186.441 342.128C185.497 342.128 184.593 341.753 183.926 341.084C183.259 340.416 182.884 339.509 182.884 338.564V291.215C182.884 290.269 183.259 289.363 183.926 288.694C184.593 288.026 185.497 287.65 186.441 287.65C187.384 287.65 188.289 288.026 188.956 288.694C189.623 289.363 189.998 290.269 189.998 291.215V338.564ZM189.998 274.895C189.998 275.84 189.623 276.747 188.956 277.416C188.289 278.084 187.384 278.46 186.441 278.46C185.497 278.46 184.593 278.084 183.926 277.416C183.259 276.747 182.884 275.84 182.884 274.895V227.546C182.884 226.601 183.259 225.694 183.926 225.025C184.593 224.357 185.497 223.982 186.441 223.982C187.384 223.982 188.289 224.357 188.956 225.025C189.623 225.694 189.998 226.601 189.998 227.546V274.895Z" stroke="black" stroke-width="12" mask="url(#path-1-outside-1_196_109)"/>
</g>
<g filter="url(#filter1_d_196_109)">
<mask id="path-2-outside-2_196_109" maskUnits="userSpaceOnUse" x="300" y="98" width="320" height="173" fill="black">
<rect fill="white" x="300" y="98" width="320" height="173"/>
<path d="M351.32 265H306.2V104.2H449.96V144.76H351.32V168.76H446.36V209.08H351.32V265ZM506.945 265H461.825V104.2H550.865C589.025 104.2 613.025 126.04 613.025 164.2C613.025 202.36 589.025 224.44 550.865 224.44H506.945V265ZM545.825 144.76H506.945V183.88H545.825C561.665 183.88 568.145 180.76 568.145 164.2C568.145 147.88 561.665 144.76 545.825 144.76Z"/>
</mask>
<path d="M351.32 265H306.2V104.2H449.96V144.76H351.32V168.76H446.36V209.08H351.32V265ZM506.945 265H461.825V104.2H550.865C589.025 104.2 613.025 126.04 613.025 164.2C613.025 202.36 589.025 224.44 550.865 224.44H506.945V265ZM545.825 144.76H506.945V183.88H545.825C561.665 183.88 568.145 180.76 568.145 164.2C568.145 147.88 561.665 144.76 545.825 144.76Z" fill="#FFF59F"/>
<path d="M351.32 265V271H357.32V265H351.32ZM306.2 265H300.2V271H306.2V265ZM306.2 104.2V98.2H300.2V104.2H306.2ZM449.96 104.2H455.96V98.2H449.96V104.2ZM449.96 144.76V150.76H455.96V144.76H449.96ZM351.32 144.76V138.76H345.32V144.76H351.32ZM351.32 168.76H345.32V174.76H351.32V168.76ZM446.36 168.76H452.36V162.76H446.36V168.76ZM446.36 209.08V215.08H452.36V209.08H446.36ZM351.32 209.08V203.08H345.32V209.08H351.32ZM351.32 259H306.2V271H351.32V259ZM312.2 265V104.2H300.2V265H312.2ZM306.2 110.2H449.96V98.2H306.2V110.2ZM443.96 104.2V144.76H455.96V104.2H443.96ZM449.96 138.76H351.32V150.76H449.96V138.76ZM345.32 144.76V168.76H357.32V144.76H345.32ZM351.32 174.76H446.36V162.76H351.32V174.76ZM440.36 168.76V209.08H452.36V168.76H440.36ZM446.36 203.08H351.32V215.08H446.36V203.08ZM345.32 209.08V265H357.32V209.08H345.32ZM506.945 265V271H512.945V265H506.945ZM461.825 265H455.825V271H461.825V265ZM461.825 104.2V98.2H455.825V104.2H461.825ZM506.945 224.44V218.44H500.945V224.44H506.945ZM506.945 144.76V138.76H500.945V144.76H506.945ZM506.945 183.88H500.945V189.88H506.945V183.88ZM506.945 259H461.825V271H506.945V259ZM467.825 265V104.2H455.825V265H467.825ZM461.825 110.2H550.865V98.2H461.825V110.2ZM550.865 110.2C568.824 110.2 582.737 115.325 592.123 124.24C601.465 133.114 607.025 146.41 607.025 164.2H619.025C619.025 143.83 612.585 127.126 600.387 115.54C588.233 103.995 571.067 98.2 550.865 98.2V110.2ZM607.025 164.2C607.025 181.992 601.464 195.355 592.11 204.292C582.719 213.265 568.806 218.44 550.865 218.44V230.44C571.084 230.44 588.251 224.575 600.4 212.968C612.586 201.325 619.025 184.568 619.025 164.2H607.025ZM550.865 218.44H506.945V230.44H550.865V218.44ZM500.945 224.44V265H512.945V224.44H500.945ZM545.825 138.76H506.945V150.76H545.825V138.76ZM500.945 144.76V183.88H512.945V144.76H500.945ZM506.945 189.88H545.825V177.88H506.945V189.88ZM545.825 189.88C553.644 189.88 561.239 189.238 566.649 184.954C572.495 180.326 574.145 172.947 574.145 164.2H562.145C562.145 172.013 560.555 174.474 559.201 175.546C557.411 176.962 553.846 177.88 545.825 177.88V189.88ZM574.145 164.2C574.145 155.548 572.484 148.226 566.625 143.637C561.223 139.405 553.648 138.76 545.825 138.76V150.76C553.842 150.76 557.427 151.675 559.225 153.083C560.566 154.134 562.145 156.532 562.145 164.2H574.145Z" fill="black" mask="url(#path-2-outside-2_196_109)"/>
</g>
<path d="M45 313V326H151.504V313H45Z" fill="#C34031"/>
<path d="M45 300V306.5H151.504V300H45Z" fill="#C34031"/>
<path d="M45 280.5V287H151.504V280.5H45Z" fill="#C34031"/>
<path d="M45 248V254.5L151.504 254.5V248L45 248Z" fill="#C34031"/>
<path d="M47.1299 215.5L47.1299 235L153.634 235V215.5L47.1299 215.5Z" fill="#C34031"/>
<path d="M45 189.5V202.5L151.504 202.5V189.5L45 189.5Z" fill="#C34031"/>
<path d="M45 170V183L151.504 183V170L45 170Z" fill="#C34031"/>
<path d="M45 137.5L45 157L151.504 157V137.5L45 137.5Z" fill="#C34031"/>
<path d="M45 118V124.5L151.504 124.5V118L45 118Z" fill="#C34031"/>
<path d="M45 98.5V111.5L151.504 111.5V98.5L45 98.5Z" fill="#C34031"/>
<path d="M45 59.5L45 79L151.504 79V59.5L45 59.5Z" fill="#C34031"/>
<path d="M45 46.5V53L151.504 53V46.5L45 46.5Z" fill="#C34031"/>
<path d="M45 27.0001V40.0001L151.504 40.0001V27.0001L45 27.0001Z" fill="#C34031"/>
<path d="M163.296 175.317H172.023V176.374H164.404V176.425L165.819 178.556H164.745L163.296 176.374V175.317Z" fill="#C34031"/>
<rect x="229.5" y="36.5" width="457" height="302" stroke="#D24939" stroke-width="5"/>
<defs>
<filter id="filter0_d_196_109" x="0" y="0" width="736" height="382" filterUnits="userSpaceOnUse" color-interpolation-filters="sRGB">
<feFlood flood-opacity="0" result="BackgroundImageFix"/>
<feColorMatrix in="SourceAlpha" type="matrix" values="0 0 0 0 0 0 0 0 0 0 0 0 0 0 0 0 0 0 127 0" result="hardAlpha"/>
<feOffset dx="6" dy="6"/>
<feComposite in2="hardAlpha" operator="out"/>
<feColorMatrix type="matrix" values="0 0 0 0 0 0 0 0 0 0 0 0 0 0 0 0 0 0 1 0"/>
<feBlend mode="normal" in2="BackgroundImageFix" result="effect1_dropShadow_196_109"/>
<feBlend mode="normal" in="SourceGraphic" in2="effect1_dropShadow_196_109" result="shape"/>
</filter>
<filter id="filter1_d_196_109" x="300.2" y="98.2" width="326.825" height="180.8" filterUnits="userSpaceOnUse" color-interpolation-filters="sRGB">
<feFlood flood-opacity="0" result="BackgroundImageFix"/>
<feColorMatrix in="SourceAlpha" type="matrix" values="0 0 0 0 0 0 0 0 0 0 0 0 0 0 0 0 0 0 127 0" result="hardAlpha"/>
<feOffset dx="8" dy="8"/>
<feComposite in2="hardAlpha" operator="out"/>
<feColorMatrix type="matrix" values="0 0 0 0 0 0 0 0 0 0 0 0 0 0 0 0 0 0 1 0"/>
<feBlend mode="normal" in2="BackgroundImageFix" result="effect1_dropShadow_196_109"/>
<feBlend mode="normal" in="SourceGraphic" in2="effect1_dropShadow_196_109" result="shape"/>
</filter>
</defs>
</svg>
